<?xml version="1.0" standalone="no"?>
<!DOCTYPE svg PUBLIC "-//W3C//DTD SVG 20010904//EN"
 "http://www.w3.org/TR/2001/REC-SVG-20010904/DTD/svg10.dtd">
<svg version="1.0" xmlns="http://www.w3.org/2000/svg"
 width="612.000000pt" height="612.000000pt" viewBox="0 0 612.000000 612.000000"
 preserveAspectRatio="xMidYMid meet">

<g transform="translate(0.000000,612.000000) scale(0.100000,-0.100000)"
fill="#000000" stroke="none">
<path d="M3232 5448 c-10 -13 -32 -328 -32 -456 0 -48 4 -64 16 -69 35 -13 35
-9 54 336 7 125 6 178 -1 188 -14 16 -24 16 -37 1z"/>
<path d="M2184 5156 c-5 -13 69 -283 88 -318 11 -22 37 -23 45 -2 5 15 -16
102 -69 272 -15 49 -23 62 -39 62 -11 0 -22 -6 -25 -14z"/>
<path d="M4340 4865 c-86 -130 -101 -157 -90 -170 7 -8 18 -15 25 -15 6 0 58
70 114 155 84 128 101 158 91 170 -7 8 -18 15 -25 15 -7 0 -58 -70 -115 -155z"/>
<path d="M1153 4903 c-40 -14 2 -63 272 -312 108 -100 137 -115 143 -76 2 15
-49 68 -189 200 -106 99 -197 183 -203 186 -6 4 -17 4 -23 2z"/>
<path d="M2573 4400 c-17 -4 -57 -22 -88 -39 -52 -29 -59 -31 -92 -20 -145 48
-542 -122 -731 -313 -64 -65 -112 -144 -112 -186 0 -15 -17 -41 -44 -69 -174
-176 -203 -529 -57 -695 17 -20 31 -47 31 -60 0 -41 28 -120 59 -170 61 -96
207 -180 361 -208 106 -19 110 -20 110 -33 0 -25 59 -133 91 -169 81 -86 226
-160 374 -189 46 -9 143 -14 282 -14 l212 0 17 -43 c8 -23 33 -68 54 -100 21
-31 41 -75 45 -97 23 -138 103 -303 190 -391 128 -130 244 -122 293 21 30 88
66 149 97 167 17 9 70 22 119 28 228 28 401 132 436 260 10 36 11 36 83 48
135 23 241 92 277 182 7 19 28 52 46 72 135 152 182 506 99 736 -19 53 -25 89
-25 153 0 140 -35 251 -107 347 -46 60 -103 106 -157 124 -32 11 -41 21 -60
70 -52 128 -192 270 -339 342 -92 45 -193 76 -254 76 -22 0 -45 11 -77 39 -25
22 -62 45 -83 52 -53 18 -160 15 -208 -5 l-40 -17 -85 41 c-82 38 -194 69
-252 70 -15 0 -63 -7 -106 -16 -72 -14 -84 -14 -132 0 -55 16 -171 20 -227 6z
m190 -56 l28 -6 -40 -43 c-77 -84 -106 -183 -82 -281 12 -45 11 -48 -17 -83
-40 -50 -70 -111 -83 -169 l-10 -50 -40 20 c-22 10 -68 22 -104 25 -62 6 -63
6 -54 30 13 35 11 91 -3 96 -24 8 -37 -5 -44 -41 -10 -59 -44 -110 -90 -137
-58 -34 -99 -87 -129 -165 -36 -93 -55 -114 -102 -115 -29 0 -39 -4 -41 -19
-5 -24 14 -36 60 -36 53 0 98 48 133 141 35 91 90 149 165 174 67 22 153 16
208 -15 36 -20 41 -28 51 -81 14 -70 66 -153 99 -157 31 -5 39 24 14 51 -46
51 -57 87 -57 192 0 89 3 105 27 150 31 60 87 115 145 144 51 26 60 38 39 59
-14 15 -19 14 -60 -5 -52 -26 -56 -21 -56 60 1 97 59 183 157 233 53 26 67 29
158 28 86 0 110 -4 171 -29 39 -15 80 -35 90 -42 17 -13 18 -15 2 -24 -31 -17
-90 -109 -114 -177 -16 -47 -24 -89 -24 -140 0 -62 -4 -78 -25 -106 -44 -57
-73 -138 -100 -278 -26 -137 -26 -158 0 -158 23 0 34 32 61 168 14 70 34 147
46 171 27 56 82 110 119 118 42 8 57 30 36 51 -15 14 -22 15 -49 4 -17 -6 -34
-9 -37 -7 -9 9 19 146 38 191 59 132 217 218 341 184 51 -14 116 -73 124 -113
3 -15 8 -39 11 -53 4 -19 11 -25 28 -22 19 3 22 9 21 46 -1 38 1 42 24 42 42
0 143 -30 206 -62 130 -66 252 -182 306 -292 28 -57 32 -73 29 -133 -4 -62 -2
-68 17 -71 20 -3 44 31 44 63 0 18 3 18 43 1 45 -19 124 -107 151 -169 28 -64
45 -136 49 -202 2 -45 0 -50 -18 -46 -45 9 -60 6 -63 -14 -2 -14 7 -26 31 -38
40 -22 68 -67 93 -152 15 -46 19 -93 19 -205 0 -163 -20 -255 -77 -363 l-31
-58 -24 49 c-23 49 -61 80 -82 68 -18 -11 -13 -36 13 -67 76 -90 12 -228 -127
-273 -79 -26 -210 -39 -327 -33 -193 11 -355 53 -525 139 -71 36 -89 50 -87
64 13 71 13 84 -3 113 -12 24 -22 31 -38 29 -17 -2 -21 -9 -19 -28 9 -77 8
-83 -27 -107 -83 -56 -250 -84 -546 -90 -206 -4 -241 -3 -330 16 -292 60 -464
253 -411 460 28 108 88 176 197 224 79 35 148 48 291 54 l128 6 -11 -32 c-13
-38 -6 -61 20 -61 13 0 23 11 31 34 13 40 80 106 140 136 69 35 185 60 281 60
151 0 235 -30 269 -95 18 -36 29 -45 47 -38 17 7 17 54 -2 79 -17 23 -19 34
-5 34 6 0 28 12 50 26 43 29 97 122 86 150 -10 26 -48 13 -59 -21 -13 -42 -65
-94 -107 -106 -28 -9 -48 -7 -90 5 -171 52 -414 17 -553 -78 l-64 -44 -98 4
c-53 3 -101 7 -106 9 -15 10 -51 120 -57 180 -7 56 -9 60 -32 60 -21 0 -26 -5
-28 -31 -4 -36 18 -132 41 -186 l16 -36 -67 -12 c-215 -37 -366 -175 -380
-347 l-5 -64 -41 7 c-127 21 -243 69 -313 129 -119 102 -138 293 -37 387 111
103 240 24 220 -134 -13 -100 -13 -103 11 -106 19 -3 24 5 39 54 38 132 -26
268 -138 289 -83 16 -195 -57 -235 -153 l-15 -36 -17 23 c-57 75 -75 229 -43
357 47 188 128 283 252 296 17 2 26 10 28 25 4 26 -25 38 -68 28 -39 -9 -39 7
-1 66 83 128 297 271 516 345 75 25 225 45 225 30 0 -4 -21 -34 -46 -67 -44
-58 -94 -95 -325 -239 -91 -57 -176 -140 -201 -198 -38 -86 -19 -220 26 -183
11 9 13 25 9 60 -13 108 53 184 285 328 158 98 195 129 290 241 95 111 195
144 345 116z m900 -2153 c118 -41 258 -68 395 -77 61 -4 112 -9 112 -11 0 -2
-9 -21 -20 -42 -52 -104 -223 -178 -435 -188 -305 -15 -558 102 -660 305 -14
28 -25 55 -25 61 0 6 17 11 38 11 53 0 211 34 262 57 l44 19 101 -52 c55 -29
140 -66 188 -83z m-293 -332 c50 -16 120 -33 155 -36 36 -3 64 -9 62 -12 -14
-26 -57 -125 -72 -164 -22 -61 -39 -77 -79 -77 -65 0 -158 94 -225 227 -27 53
-61 144 -61 165 0 4 29 -11 65 -33 36 -22 106 -53 155 -70z"/>
<path d="M3720 3877 c-128 -30 -202 -106 -204 -209 -1 -44 -3 -47 -37 -57 -46
-14 -91 -55 -83 -75 8 -21 26 -20 67 4 110 65 333 35 388 -53 32 -51 9 -116
-48 -138 -26 -10 -31 -44 -7 -53 19 -7 62 14 94 49 21 22 25 37 27 93 2 78 5
80 104 81 255 3 418 -343 294 -624 -31 -71 -86 -147 -131 -181 l-34 -26 -35
30 c-34 31 -94 50 -114 37 -23 -14 -9 -36 36 -57 83 -40 116 -125 77 -199 -18
-37 -12 -59 16 -59 33 0 64 79 57 142 l-6 48 67 68 c115 115 163 234 163 403
1 203 -97 377 -250 447 -69 32 -167 39 -235 18 -47 -14 -51 -14 -77 5 -50 36
-103 52 -189 58 -71 5 -85 9 -88 24 -10 50 34 114 102 149 64 34 182 32 260
-4 61 -29 76 -29 76 2 0 56 -177 102 -290 77z"/>
<path d="M3946 3168 c-2 -7 -7 -31 -10 -53 -9 -61 -62 -160 -117 -215 -64 -64
-170 -116 -279 -136 -95 -18 -289 -14 -394 9 l-59 12 31 27 c35 29 43 68 15
68 -9 0 -48 -22 -87 -49 -137 -94 -263 -141 -381 -143 -103 -2 -153 9 -161 35
-13 42 -45 77 -70 77 -36 0 -41 -26 -10 -55 35 -32 33 -62 -6 -102 -29 -30
-31 -34 -16 -49 15 -15 19 -15 47 2 17 10 34 27 37 37 4 12 11 16 22 12 10 -4
58 -10 109 -12 113 -7 203 13 322 69 l83 40 72 -16 c416 -91 733 7 860 265 46
94 55 182 18 187 -12 2 -24 -3 -26 -10z"/>
<path d="M5177 4297 c-120 -63 -222 -118 -228 -124 -14 -14 0 -43 20 -42 9 0
117 53 241 117 179 93 225 121 225 137 0 13 -7 21 -20 22 -11 2 -118 -48 -238
-110z"/>
<path d="M754 4005 c-3 -8 -4 -19 -2 -25 5 -15 300 -138 316 -132 7 2 12 14
10 26 -2 17 -32 33 -148 83 -80 34 -151 63 -158 63 -7 0 -15 -7 -18 -15z"/>
<path d="M5240 3291 c-67 -5 -75 -8 -78 -27 -2 -12 3 -23 10 -26 7 -2 100 -2
205 2 195 6 222 12 210 44 -5 14 -27 16 -139 14 -73 -1 -167 -4 -208 -7z"/>
<path d="M670 3158 c-166 -7 -218 -12 -230 -23 -12 -13 -12 -17 0 -29 13 -13
54 -13 280 -5 278 11 310 17 280 53 -14 18 -2 18 -330 4z"/>
<path d="M5047 2523 c-4 -3 -7 -14 -7 -24 0 -14 59 -37 303 -118 166 -56 309
-101 318 -101 20 0 30 22 20 39 -7 10 -592 211 -617 211 -6 0 -14 -3 -17 -7z"/>
<path d="M880 2195 c-135 -78 -165 -100 -165 -118 0 -12 7 -23 15 -24 8 -2 92
41 185 95 130 74 170 102 170 117 0 39 -41 25 -205 -70z"/>
<path d="M4742 1708 c-7 -7 -12 -17 -12 -24 0 -20 246 -244 269 -244 46 0 20
40 -106 159 -71 67 -130 121 -133 121 -3 0 -11 -5 -18 -12z"/>
<path d="M1560 1360 c-196 -224 -220 -260 -178 -268 22 -4 413 442 413 472 0
54 -37 22 -235 -204z"/>
<path d="M3813 1243 c-7 -2 -13 -11 -13 -19 0 -12 116 -330 165 -451 17 -44
50 -59 61 -29 4 12 -149 435 -176 487 -11 19 -16 21 -37 12z"/>
<path d="M2743 1162 c-8 -5 -20 -77 -33 -187 -18 -160 -19 -180 -5 -194 28
-29 39 5 61 182 22 189 18 225 -23 199z"/>
</g>
</svg>
